# xmcd
#
# Track frame offsets: 
#        150
#        23565
#        43127
#        65787
#        89830
#        107242
#        130280
#        158302
#        172747
#        199752
#
# Disc length: 3171 seconds
#
# Revision: 1
# Processed by: cddbd v1.5.2PL0 Copyright (c) Steve Scherf et al.
# Submitted via: ExactAudioCopy v0.99pb5
#
DISCID=820c610a
DTITLE=Joe Louis Walker - In the Morning
DYEAR=2002
DGENRE=Blues
TTITLE0=You're Just About To Lose Your Clown
TTITLE1=In the Morning
TTITLE2=Joe's Jump
TTITLE3=Leave That Girl Alone
TTITLE4=Where Jesus Leads
TTITLE5=Strange Loving
TTITLE6=Do You Wanna Be with Me
TTITLE7=If This Is Love (I'd Rather Have the Blues)
TTITLE8=2120 South Michigan Avenue
TTITLE9=Strangers in Our House
EXTD=YEAR: 2002 ID3G: 0
EXTT0=
EXTT1=
EXTT2=
EXTT3=
EXTT4=
EXTT5=
EXTT6=
EXTT7=
EXTT8=
EXTT9=
PLAYORDER=
